<?xml version="1.0" encoding="UTF-8" standalone="no"?>
<!DOCTYPE svg PUBLIC "-//W3C//DTD SVG 1.1//EN"
 "http://www.w3.org/Graphics/SVG/1.1/DTD/svg11.dtd">
<!-- Generated by graphviz version 9.0.0 (20230911.1827)
 -->
<!-- Title: MCD Pages: 1 -->
<svg width="459pt" height="207pt"
 viewBox="0.00 0.00 458.53 206.50" xmlns="http://www.w3.org/2000/svg" xmlns:xlink="http://www.w3.org/1999/xlink">
<g id="graph0" class="graph" transform="scale(1 1) rotate(0) translate(4 202.5)">
<title>MCD</title>
<polygon fill="white" stroke="none" points="-4,4 -4,-202.5 454.53,-202.5 454.53,4 -4,4"/>
<!-- FILM -->
<g id="node1" class="node">
<title>FILM</title>
<polygon fill="#cfe2ff" stroke="#3b6fb0" points="0,-45.38 0,-142.62 110,-142.62 110,-45.38 0,-45.38"/>
<text text-anchor="middle" x="19.62" y="-90.88" font-family="Helvetica,sans-Serif" font-size="10.00">FILM</text>
<polyline fill="none" stroke="#3b6fb0" points="39.25,-45.38 39.25,-142.62"/>
<text text-anchor="start" x="47.25" y="-129.12" font-family="Helvetica,sans-Serif" font-size="10.00">tmdb_id</text>
<text text-anchor="start" x="47.25" y="-116.38" font-family="Helvetica,sans-Serif" font-size="10.00">imdb_id</text>
<text text-anchor="start" x="47.25" y="-103.62" font-family="Helvetica,sans-Serif" font-size="10.00">titre</text>
<text text-anchor="start" x="47.25" y="-90.88" font-family="Helvetica,sans-Serif" font-size="10.00">date_sortie</text>
<text text-anchor="start" x="47.25" y="-78.12" font-family="Helvetica,sans-Serif" font-size="10.00">budget</text>
<text text-anchor="start" x="47.25" y="-65.38" font-family="Helvetica,sans-Serif" font-size="10.00">recettes</text>
<text text-anchor="start" x="47.25" y="-52.62" font-family="Helvetica,sans-Serif" font-size="10.00">...</text>
</g>
<!-- APPARTENIR -->
<g id="node5" class="node">
<title>APPARTENIR</title>
<polygon fill="#ffe0b3" stroke="#cc8a2e" points="226.76,-198 161,-180 226.76,-162 292.53,-180 226.76,-198"/>
<text text-anchor="middle" x="226.76" y="-176.88" font-family="Helvetica,sans-Serif" font-size="10.00">APPARTENIR</text>
</g>
<!-- FILM&#45;&#45;APPARTENIR -->
<g id="edge1" class="edge">
<title>FILM&#45;&#45;APPARTENIR</title>
<path fill="none" stroke="black" d="M110.39,-126.16C126.48,-135.23 144.27,-144.85 161,-153 173.05,-158.87 186.7,-164.68 198.35,-169.4"/>
<text text-anchor="middle" x="135.5" y="-145.25" font-family="Helvetica,sans-Serif" font-size="10.00">1,n</text>
</g>
<!-- DECRIRE -->
<g id="node6" class="node">
<title>DECRIRE</title>
<polygon fill="#ffe0b3" stroke="#cc8a2e" points="226.76,-144 175.93,-126 226.76,-108 277.6,-126 226.76,-144"/>
<text text-anchor="middle" x="226.76" y="-122.88" font-family="Helvetica,sans-Serif" font-size="10.00">DECRIRE</text>
</g>
<!-- FILM&#45;&#45;DECRIRE -->
<g id="edge3" class="edge">
<title>FILM&#45;&#45;DECRIRE</title>
<path fill="none" stroke="black" d="M110.18,-104.21C137.16,-109.3 168.91,-115.28 192.31,-119.69"/>
<text text-anchor="middle" x="135.5" y="-113.25" font-family="Helvetica,sans-Serif" font-size="10.00">0,n</text>
</g>
<!-- NOTER -->
<g id="node7" class="node">
<title>NOTER</title>
<polygon fill="#ffe0b3" stroke="#cc8a2e" points="226.76,-90 183.71,-72 226.76,-54 269.81,-72 226.76,-90"/>
<text text-anchor="middle" x="226.76" y="-68.88" font-family="Helvetica,sans-Serif" font-size="10.00">NOTER</text>
</g>
<!-- FILM&#45;&#45;NOTER -->
<g id="edge5" class="edge">
<title>FILM&#45;&#45;NOTER</title>
<path fill="none" stroke="black" d="M110.18,-86.98C137.35,-83.46 169.37,-79.31 192.81,-76.27"/>
<text text-anchor="middle" x="135.5" y="-87.25" font-family="Helvetica,sans-Serif" font-size="10.00">0,n</text>
</g>
<!-- INGERER -->
<g id="node8" class="node">
<title>INGERER</title>
<polygon fill="#ffe0b3" stroke="#cc8a2e" points="226.76,-36 175.28,-18 226.76,0 278.25,-18 226.76,-36"/>
<text text-anchor="middle" x="226.76" y="-14.88" font-family="Helvetica,sans-Serif" font-size="10.00">INGERER</text>
</g>
<!-- FILM&#45;&#45;INGERER -->
<g id="edge7" class="edge">
<title>FILM&#45;&#45;INGERER</title>
<path fill="none" stroke="black" d="M110.3,-68.14C126.54,-60.54 144.44,-52.31 161,-45 174.48,-39.05 189.69,-32.69 201.98,-27.64"/>
<text text-anchor="middle" x="135.5" y="-62.25" font-family="Helvetica,sans-Serif" font-size="10.00">1,n</text>
</g>
<!-- GENRE -->
<g id="node2" class="node">
<title>GENRE</title>
<polygon fill="#cfe2ff" stroke="#3b6fb0" points="353.28,-162 353.28,-198 440.78,-198 440.78,-162 353.28,-162"/>
<text text-anchor="middle" x="378.15" y="-177" font-family="Helvetica,sans-Serif" font-size="10.00">GENRE</text>
<polyline fill="none" stroke="#3b6fb0" points="403.03,-162.25 403.03,-198"/>
<text text-anchor="start" x="411.03" y="-177" font-family="Helvetica,sans-Serif" font-size="10.00">nom</text>
</g>
<!-- SOURCE -->
<g id="node3" class="node">
<title>SOURCE</title>
<polygon fill="#cfe2ff" stroke="#3b6fb0" points="349.15,-35 349.15,-71 444.9,-71 444.9,-35 349.15,-35"/>
<text text-anchor="middle" x="377.4" y="-50" font-family="Helvetica,sans-Serif" font-size="10.00">SOURCE</text>
<polyline fill="none" stroke="#3b6fb0" points="405.65,-35.25 405.65,-71"/>
<text text-anchor="start" x="413.65" y="-50" font-family="Helvetica,sans-Serif" font-size="10.00">code</text>
</g>
<!-- MOT_CLE -->
<g id="node4" class="node">
<title>MOT_CLE</title>
<polygon fill="#cfe2ff" stroke="#3b6fb0" points="343.53,-107 343.53,-143 450.53,-143 450.53,-107 343.53,-107"/>
<text text-anchor="middle" x="374.4" y="-122" font-family="Helvetica,sans-Serif" font-size="10.00">MOT_CLE</text>
<polyline fill="none" stroke="#3b6fb0" points="405.28,-107.25 405.28,-143"/>
<text text-anchor="start" x="413.28" y="-122" font-family="Helvetica,sans-Serif" font-size="10.00">terme</text>
</g>
<!-- APPARTENIR&#45;&#45;GENRE -->
<g id="edge2" class="edge">
<title>APPARTENIR&#45;&#45;GENRE</title>
<path fill="none" stroke="black" d="M294.27,-180C314.11,-180 335.32,-180 353.21,-180"/>
<text text-anchor="middle" x="318.03" y="-183.25" font-family="Helvetica,sans-Serif" font-size="10.00">0,n</text>
</g>
<!-- DECRIRE&#45;&#45;MOT_CLE -->
<g id="edge4" class="edge">
<title>DECRIRE&#45;&#45;MOT_CLE</title>
<path fill="none" stroke="black" d="M278.25,-125.7C298.77,-125.58 322.49,-125.44 343.24,-125.31"/>
<text text-anchor="middle" x="318.03" y="-128.25" font-family="Helvetica,sans-Serif" font-size="10.00">0,n</text>
</g>
<!-- NOTER&#45;&#45;SOURCE -->
<g id="edge6" class="edge">
<title>NOTER&#45;&#45;SOURCE</title>
<path fill="none" stroke="black" d="M261.81,-68.16C286.88,-65.32 321.26,-61.44 348.96,-58.32"/>
<text text-anchor="middle" x="318.03" y="-65.25" font-family="Helvetica,sans-Serif" font-size="10.00">1,n</text>
</g>
<!-- INGERER&#45;&#45;SOURCE -->
<g id="edge8" class="edge">
<title>INGERER&#45;&#45;SOURCE</title>
<path fill="none" stroke="black" d="M260.21,-24.75C285.32,-29.97 320.47,-37.28 348.72,-43.16"/>
<text text-anchor="middle" x="318.03" y="-41.25" font-family="Helvetica,sans-Serif" font-size="10.00">1,n</text>
</g>
</g>
</svg>
